<svg width="3205" height="127" viewBox="0 0 3205 127" fill="none" xmlns="http://www.w3.org/2000/svg">
<path d="M0 0V123.262L16.025 118.083C19.23 118.083 51.28 125.852 54.485 118.083C60.895 125.852 73.715 110.315 73.715 118.083C73.715 107.725 112.175 125.852 112.175 118.083C112.175 125.852 160.25 115.494 166.66 118.083C173.07 112.904 182.685 115.494 185.89 118.083C185.89 112.904 205.12 123.262 205.12 118.083C205.12 112.904 211.53 128.441 217.94 118.083C233.965 123.262 256.4 110.315 269.22 118.083C275.63 112.904 282.04 110.315 282.04 118.083C282.04 123.262 301.27 115.494 301.27 118.083C304.475 128.441 349.345 112.904 355.755 118.083H378.19C378.19 120.673 387.805 110.315 397.42 118.083H451.905C458.315 123.262 461.52 120.673 471.135 118.083H490.365C493.57 112.904 557.67 115.494 567.285 118.083C573.695 120.673 580.105 123.262 586.515 118.083C586.515 115.494 657.025 128.441 663.435 118.083C663.435 118.083 679.46 110.315 679.46 118.083C685.87 112.904 711.51 123.262 717.92 118.083C724.33 123.262 737.15 120.673 737.15 118.083C743.56 125.852 749.97 112.904 756.38 118.083C759.585 118.083 836.505 112.904 836.505 120.673L868.555 118.083C878.17 120.673 887.785 133.62 890.99 118.083C894.195 131.031 903.81 112.904 910.22 118.083C916.63 112.904 923.04 125.852 926.245 118.083H964.705C983.935 120.673 1080.08 123.262 1080.08 118.083C1080.08 123.262 1089.7 118.083 1099.31 118.083H1118.54C1134.57 112.904 1140.98 128.441 1153.8 118.083C1160.21 118.083 1201.87 123.262 1208.28 118.083H1249.95C1259.56 107.725 1265.97 120.673 1272.38 118.083H1365.33C1365.33 110.315 1384.56 118.083 1384.56 118.083H1400.58C1400.58 123.262 1451.86 115.494 1458.27 118.083C1461.48 128.441 1487.12 115.494 1496.73 118.083C1506.35 120.673 1515.96 112.904 1515.96 118.083C1541.6 112.904 1525.58 128.441 1557.63 118.083H1589.68C1599.29 128.441 1650.57 120.673 1650.57 118.083C1656.98 118.083 1717.88 120.673 1724.29 115.494C1727.49 125.852 1733.9 112.904 1743.52 118.083C1746.72 123.262 1778.77 115.494 1781.98 115.494C1791.59 123.262 1810.82 115.494 1820.44 118.083C1830.05 107.725 1839.67 120.673 1839.67 118.083H1858.9C1858.9 110.315 1874.92 120.673 1878.13 115.494C1878.13 123.262 1884.54 118.083 1890.95 118.083C1900.56 128.441 1923 115.494 1932.61 118.083C1942.23 112.904 1951.84 115.494 1951.84 118.083C1958.25 123.262 1958.25 118.083 1971.07 118.083C1974.28 112.904 1990.3 123.262 1990.3 118.083C1996.71 118.083 2003.12 131.031 2009.53 118.083H2067.22C2073.63 125.852 2080.04 120.673 2086.45 118.083L2105.68 115.494C2115.3 120.673 2144.14 123.262 2160.17 118.083C2205.04 125.852 2217.86 120.673 2237.09 118.083C2243.5 115.494 2246.7 125.852 2253.11 118.083C2272.34 123.262 2285.16 115.494 2304.39 118.083C2307.6 125.852 2323.62 118.083 2333.24 118.083C2333.24 112.904 2342.85 123.262 2349.26 118.083C2368.49 102.546 2374.9 136.21 2390.93 118.083C2390.93 112.904 2406.95 123.262 2406.95 118.083C2416.57 125.852 2439 118.083 2439 118.083C2442.21 123.262 2455.03 112.904 2464.64 118.083C2474.26 115.494 2490.28 125.852 2503.1 118.083H2522.33C2528.74 120.673 2554.38 128.441 2560.79 118.083H2580.02C2583.23 115.494 2596.05 123.262 2599.25 118.083C2602.46 123.262 2612.07 115.494 2618.48 118.083C2618.48 112.904 2634.51 125.852 2637.71 115.494C2644.12 118.083 2656.94 128.441 2653.74 118.083C2656.94 120.673 2663.35 112.904 2672.97 118.083C2679.38 115.494 2688.99 125.852 2692.2 118.083C2692.2 120.673 2711.43 123.262 2711.43 118.083C2717.84 125.852 2724.25 107.725 2730.66 118.083C2730.66 112.904 2740.27 123.262 2749.89 118.083C2759.5 118.083 2769.12 125.852 2769.12 118.083C2785.14 125.852 2794.76 115.494 2810.78 118.083C2820.4 107.725 2830.01 120.673 2830.01 118.083H2846.04C2846.04 115.494 2874.88 123.262 2884.5 118.083C2887.7 115.494 2913.34 125.852 2919.75 118.083H2938.98C2945.39 123.262 2951.8 128.441 2961.42 118.083C2971.03 123.262 2977.44 107.725 2977.44 115.494C3009.49 125.852 3025.52 110.315 3035.13 120.673C3035.13 118.083 3054.36 125.852 3054.36 115.494C3054.36 115.494 3073.59 110.315 3073.59 118.083C3076.8 133.62 3112.05 123.262 3112.05 118.083C3115.26 125.852 3124.87 110.315 3134.49 123.262C3140.9 118.083 3150.51 128.441 3150.51 123.262C3153.72 136.21 3163.33 110.315 3169.74 123.262C3176.15 120.673 3182.56 128.441 3188.97 123.262C3192.18 131.031 3192.18 123.262 3205 123.262V0H0Z" fill="#26DD9A"/>
</svg>
