<svg width="211" height="24" viewBox="0 0 211 24" fill="none" xmlns="http://www.w3.org/2000/svg">
<path d="M0.92 0.599998H14.36C16.6 0.599998 18.2213 1.112 19.224 2.136C20.248 3.13867 20.76 4.76 20.76 7V10.2C20.76 12.44 20.248 14.072 19.224 15.096C18.2213 16.0987 16.6 16.6 14.36 16.6H6.68V23H0.92V0.599998ZM15 7C15 5.72 14.36 5.08 13.08 5.08H6.68V12.12H13.08C14.36 12.12 15 11.48 15 10.2V7ZM29.8788 9.72C29.0254 9.72 28.5988 10.1467 28.5988 11V12.76H34.0388V11C34.0388 10.1467 33.6121 9.72 32.7588 9.72H29.8788ZM38.9988 22.68C34.8814 23.1067 31.1481 23.32 27.7988 23.32C26.3481 23.32 25.1854 22.8827 24.3108 22.008C23.4361 21.1333 22.9988 19.9707 22.9988 18.52V10.84C22.9988 9.24 23.4468 7.992 24.3428 7.096C25.2601 6.17867 26.5188 5.72 28.1188 5.72H34.5188C36.1188 5.72 37.3668 6.17867 38.2628 7.096C39.1801 7.992 39.6388 9.24 39.6388 10.84V16.76H28.5988V18.04C28.5988 18.36 28.7054 18.6267 28.9188 18.84C29.1321 19.0533 29.3988 19.16 29.7188 19.16C31.8308 19.16 34.9241 19 38.9988 18.68V22.68ZM54.5063 23L54.1863 21.4C53.1836 22.0613 52.1489 22.552 51.0823 22.872C50.0369 23.1707 49.1516 23.32 48.4263 23.32H46.9863C45.5356 23.32 44.3729 22.8827 43.4983 22.008C42.6236 21.1333 42.1863 19.9707 42.1863 18.52V11.16C42.1863 9.56 42.6343 8.312 43.5303 7.416C44.4476 6.49867 45.7063 6.04 47.3063 6.04H53.8663V0.599998H59.4663V23H54.5063ZM50.0263 18.68C51.1569 18.68 52.4369 18.4667 53.8663 18.04V10.36H49.0663C48.2129 10.36 47.7863 10.7867 47.7863 11.64V17.56C47.7863 17.88 47.8929 18.1467 48.1063 18.36C48.3196 18.5733 48.5863 18.68 48.9062 18.68H50.0263ZM69.3825 18.84C70.5132 18.84 71.7932 18.6267 73.2225 18.2V16.28H68.5825C68.2625 16.28 67.9958 16.3867 67.7825 16.6C67.5692 16.8133 67.4625 17.08 67.4625 17.4V17.72C67.4625 18.04 67.5692 18.3067 67.7825 18.52C67.9958 18.7333 68.2625 18.84 68.5825 18.84H69.3825ZM63.4625 6.36C67.3665 5.93333 70.8865 5.72 74.0225 5.72C75.4732 5.72 76.6358 6.15733 77.5105 7.032C78.3852 7.90667 78.8225 9.06933 78.8225 10.52V23H73.8625L73.5425 21.4C72.5398 22.0613 71.5052 22.552 70.4385 22.872C69.3932 23.1707 68.5078 23.32 67.7825 23.32H66.6625C65.2118 23.32 64.0492 22.8827 63.1745 22.008C62.2998 21.1333 61.8625 19.9707 61.8625 18.52V17.08C61.8625 15.6293 62.2998 14.4667 63.1745 13.592C64.0492 12.7173 65.2118 12.28 66.6625 12.28H73.2225V11C73.2225 10.68 73.1158 10.4133 72.9025 10.2C72.6892 9.98667 72.4225 9.88 72.1025 9.88C70.7158 9.88 69.1798 9.944 67.4945 10.072C65.8305 10.2 64.4865 10.296 63.4625 10.36V6.36ZM90.3338 23C88.9044 23.2133 87.5391 23.32 86.2378 23.32C84.9578 23.32 83.8804 22.8827 83.0058 22.008C82.1311 21.1333 81.6938 19.9707 81.6938 18.52V0.599998H87.2938V17.72C87.2938 18.04 87.4004 18.3067 87.6138 18.52C87.8271 18.7333 88.0938 18.84 88.4138 18.84H90.3338V23Z" fill="#00E0FF"/>
<path d="M120.243 23H102.483V0.599998H120.243V5.08H108.243V9.4H117.683V13.88H108.243V18.52H120.243V23ZM133.835 6.04H139.755L133.355 23H126.955L120.555 6.04H126.475L130.155 17.56L133.835 6.04ZM147.285 9.72C146.432 9.72 146.005 10.1467 146.005 11V12.76H151.445V11C151.445 10.1467 151.018 9.72 150.165 9.72H147.285ZM156.405 22.68C152.288 23.1067 148.554 23.32 145.205 23.32C143.754 23.32 142.592 22.8827 141.717 22.008C140.842 21.1333 140.405 19.9707 140.405 18.52V10.84C140.405 9.24 140.853 7.992 141.749 7.096C142.666 6.17867 143.925 5.72 145.525 5.72H151.925C153.525 5.72 154.773 6.17867 155.669 7.096C156.586 7.992 157.045 9.24 157.045 10.84V16.76H146.005V18.04C146.005 18.36 146.112 18.6267 146.325 18.84C146.538 19.0533 146.805 19.16 147.125 19.16C149.237 19.16 152.33 19 156.405 18.68V22.68ZM169.353 10.36C168.222 10.36 166.942 10.5733 165.513 11V23H159.913V6.04H164.873L165.193 7.64C166.195 6.97867 167.219 6.49867 168.265 6.2C169.331 5.88 170.227 5.72 170.953 5.72H172.393C173.843 5.72 175.006 6.15733 175.881 7.032C176.755 7.90667 177.193 9.06933 177.193 10.52V23H171.593V11.48C171.593 11.16 171.486 10.8933 171.273 10.68C171.059 10.4667 170.793 10.36 170.473 10.36H169.353ZM191.909 23C189.839 23.2133 187.813 23.32 185.829 23.32C184.378 23.32 183.215 22.8827 182.341 22.008C181.466 21.1333 181.029 19.9707 181.029 18.52V10.36H179.109V6.04H181.029L181.669 2.2H186.629V6.04H190.629V10.36H186.629V17.72C186.629 18.04 186.735 18.3067 186.949 18.52C187.162 18.7333 187.429 18.84 187.749 18.84H191.909V23ZM193.523 18.52C197.853 18.84 201.267 19 203.763 19C204.083 19 204.349 18.8933 204.563 18.68C204.776 18.4667 204.883 18.2 204.883 17.88V16.76H198.003C196.552 16.76 195.389 16.3227 194.515 15.448C193.64 14.5733 193.203 13.4107 193.203 11.96V10.84C193.203 9.38933 193.64 8.22667 194.515 7.352C195.389 6.47733 196.552 6.04 198.003 6.04H208.883V10.2H199.923C199.603 10.2 199.336 10.3067 199.123 10.52C198.909 10.7333 198.803 11 198.803 11.32C198.803 11.64 198.909 11.9067 199.123 12.12C199.336 12.3333 199.603 12.44 199.923 12.44H205.683C207.133 12.44 208.296 12.8773 209.171 13.752C210.045 14.6267 210.483 15.7893 210.483 17.24V18.52C210.483 19.9707 210.045 21.1333 209.171 22.008C208.296 22.8827 207.133 23.32 205.683 23.32C201.907 23.32 197.853 23.1067 193.523 22.68V18.52Z" fill="white"/>
</svg>
